<svg width="29" height="25" viewBox="0 0 29 25" fill="none" xmlns="http://www.w3.org/2000/svg">
<path d="M11.2656 23.4473V15.1768C11.2656 14.9248 11.3418 14.7256 11.4941 14.5791C11.6523 14.4268 11.8574 14.3506 12.1094 14.3506H16.8994C17.1514 14.3506 17.3535 14.4268 17.5059 14.5791C17.6582 14.7256 17.7344 14.9248 17.7344 15.1768V23.4473H11.2656ZM6.81836 24.7217C5.99805 24.7217 5.35938 24.499 4.90234 24.0537C4.45117 23.6084 4.22559 22.9814 4.22559 22.1729V9.63965L6.15918 8.3125V21.6104C6.15918 21.9912 6.25879 22.2812 6.45801 22.4805C6.65723 22.6797 6.94434 22.7793 7.31934 22.7793H21.6279C22.0088 22.7793 22.2959 22.6797 22.4893 22.4805C22.6885 22.2812 22.7881 21.9912 22.7881 21.6104V8.30371L24.7305 9.63965V22.1729C24.7305 22.9814 24.502 23.6084 24.0449 24.0537C23.5938 24.499 22.9551 24.7217 22.1289 24.7217H6.81836ZM0.938477 11.9688C0.938477 11.6582 1.07031 11.3945 1.33398 11.1777L13.041 1.35156C13.4922 0.964844 13.9814 0.771484 14.5088 0.771484C15.042 0.771484 15.5342 0.964844 15.9854 1.35156L27.666 11.1689C27.9238 11.3916 28.0527 11.6641 28.0527 11.9863C28.0527 12.2676 27.9561 12.4932 27.7627 12.6631C27.5752 12.833 27.3379 12.918 27.0508 12.918C26.8984 12.918 26.7549 12.8828 26.6201 12.8125C26.4854 12.7363 26.3564 12.6484 26.2334 12.5488L15.001 3.10938C14.8428 2.96875 14.6787 2.90137 14.5088 2.90723C14.3389 2.90723 14.1777 2.97461 14.0254 3.10938L2.7666 12.5488C2.64355 12.6484 2.51465 12.7363 2.37988 12.8125C2.25098 12.8828 2.11035 12.918 1.95801 12.918C1.6416 12.918 1.39258 12.8242 1.21094 12.6367C1.0293 12.4434 0.938477 12.2207 0.938477 11.9688ZM21.7949 6.84473V3.8916C21.7949 3.65723 21.8652 3.47266 22.0059 3.33789C22.1523 3.19727 22.3398 3.12695 22.5684 3.12695H23.9658C24.1943 3.12695 24.3789 3.19727 24.5195 3.33789C24.6602 3.47266 24.7305 3.65723 24.7305 3.8916V9.31445L21.7949 6.84473Z" fill="#999999"/>
</svg>
