<svg width="28" height="28" viewBox="0 0 28 28" fill="none" xmlns="http://www.w3.org/2000/svg">
<path d="M1.75757 25.915C1.1189 25.2764 0.694092 24.5645 0.483154 23.7793C0.272217 23 0.289795 22.2178 0.535889 21.4326C0.787842 20.6475 1.2771 19.9355 2.00366 19.2969C2.5896 18.7812 3.28687 18.2422 4.09546 17.6797C4.90991 17.1113 5.76831 16.5195 6.67065 15.9043C7.57886 15.2832 8.47534 14.6357 9.36011 13.9619C10.2507 13.2822 11.0652 12.5732 11.8035 11.835C12.2195 11.4131 12.5095 10.9619 12.6736 10.4814C12.8376 9.99512 12.9343 9.48535 12.9636 8.95215C12.9929 8.41309 13.0134 7.85938 13.0251 7.29102C13.0369 6.7168 13.0955 6.13086 13.2009 5.5332C13.3064 4.92969 13.5144 4.32031 13.825 3.70508C14.1355 3.08984 14.613 2.47754 15.2576 1.86816C15.908 1.25293 16.6492 0.795898 17.4812 0.49707C18.3132 0.192383 19.1775 0.0488281 20.074 0.0664062C20.9705 0.078125 21.8376 0.253906 22.6755 0.59375C23.5193 0.933594 24.2693 1.44043 24.9255 2.11426C25.1716 2.36621 25.3796 2.62695 25.5496 2.89648C25.7253 3.16602 25.8513 3.40918 25.9275 3.62598L21.533 4.8125C21.158 4.91797 20.9089 5.11426 20.7859 5.40137C20.6628 5.68848 20.6541 6.0166 20.7595 6.38574L21.0935 7.55469C21.2048 7.92969 21.3806 8.21387 21.6208 8.40723C21.8611 8.60059 22.1716 8.64746 22.5525 8.54785L26.9382 7.36133C27.0144 7.77148 27.0173 8.20215 26.947 8.65332C26.8826 9.09863 26.7507 9.54395 26.5515 9.98926C26.3582 10.4287 26.1091 10.8506 25.8044 11.2549C25.5056 11.6533 25.1599 12.0137 24.7673 12.3359C24.1814 12.8574 23.6189 13.2441 23.0798 13.4961C22.5466 13.7422 22.0281 13.9121 21.5242 14.0059C21.0261 14.0996 20.5398 14.1582 20.0652 14.1816C19.5906 14.2051 19.1306 14.2432 18.6853 14.2959C18.24 14.3486 17.8035 14.4658 17.3757 14.6475C16.9539 14.8291 16.5349 15.125 16.1189 15.5352C15.2986 16.3555 14.531 17.2314 13.8162 18.1631C13.1013 19.0947 12.4275 20.0205 11.7947 20.9404C11.1619 21.8662 10.5613 22.7363 9.99292 23.5508C9.43042 24.3652 8.89136 25.0654 8.37573 25.6514C7.73706 26.3838 7.02515 26.873 6.23999 27.1191C5.45483 27.3711 4.66968 27.3916 3.88452 27.1807C3.10522 26.9756 2.39624 26.5537 1.75757 25.915ZM2.88257 24.79C3.29272 25.2061 3.75562 25.4814 4.27124 25.6162C4.79272 25.751 5.31714 25.7334 5.84448 25.5635C6.37183 25.3936 6.84644 25.0625 7.26831 24.5703C7.78979 23.9727 8.34351 23.249 8.92944 22.3994C9.52124 21.5557 10.1423 20.6592 10.7927 19.71C11.4431 18.7549 12.1169 17.8174 12.8142 16.8975C13.5173 15.9775 14.241 15.1484 14.9851 14.4102C15.4773 13.918 15.9724 13.5605 16.4705 13.3379C16.9685 13.1094 17.4724 12.957 17.9822 12.8809C18.4919 12.7988 18.9988 12.7461 19.5027 12.7227C20.0125 12.6992 20.5193 12.6523 21.0232 12.582C21.533 12.5059 22.0339 12.3623 22.5261 12.1514C23.0183 11.9346 23.5017 11.5947 23.9763 11.1318C24.3689 10.751 24.6794 10.3467 24.908 9.91895C25.1365 9.48535 25.3035 9.05176 25.4089 8.61816L26.2439 9.06641L22.8337 9.98926C22.0603 10.2061 21.3953 10.1562 20.8386 9.83984C20.2878 9.52344 19.8748 8.89062 19.5994 7.94141L19.283 6.83398C19.0251 5.9668 19.0662 5.22852 19.406 4.61914C19.7458 4.00977 20.3347 3.59668 21.1726 3.37988L24.4773 2.50977L24.0291 3.33594C23.5251 2.80273 22.9421 2.39844 22.28 2.12305C21.6179 1.8418 20.9294 1.68945 20.2146 1.66602C19.5056 1.63672 18.8171 1.7334 18.1492 1.95605C17.4871 2.17871 16.9011 2.52734 16.3914 3.00195C15.7996 3.54102 15.3689 4.0918 15.0994 4.6543C14.8357 5.2168 14.6658 5.78516 14.5896 6.35938C14.5134 6.92773 14.4724 7.49902 14.4666 8.07324C14.4607 8.6416 14.4343 9.2041 14.3875 9.76074C14.3406 10.3174 14.2117 10.8652 14.0007 11.4043C13.7898 11.9375 13.4353 12.4561 12.9373 12.96C12.4041 13.4932 11.7976 14.0264 11.1179 14.5596C10.4441 15.0928 9.73804 15.6201 8.99976 16.1416C8.26733 16.6572 7.53784 17.1641 6.81128 17.6621C6.09058 18.1543 5.41089 18.6318 4.77222 19.0947C4.13354 19.5518 3.57983 19.9854 3.11108 20.3955C2.62476 20.8174 2.29663 21.2891 2.12671 21.8105C1.96265 22.332 1.94507 22.8535 2.07397 23.375C2.20288 23.8965 2.47241 24.3682 2.88257 24.79ZM16.5583 11.2988C16.4529 11.3223 16.3533 11.3105 16.2595 11.2637C16.1658 11.2168 16.1101 11.1348 16.0925 11.0176C16.0691 10.918 16.0808 10.8242 16.1277 10.7363C16.1804 10.6426 16.2595 10.584 16.365 10.5605L18.7732 9.91016C18.8787 9.875 18.9753 9.88672 19.0632 9.94531C19.1511 9.99805 19.2097 10.0742 19.239 10.1738C19.2625 10.2734 19.2478 10.3701 19.1951 10.4639C19.1423 10.5576 19.0662 10.6162 18.9666 10.6396L16.5583 11.2988ZM16.2595 10.0596C16.0134 10.1299 15.8552 10.0361 15.7849 9.77832C15.7556 9.68457 15.7644 9.59082 15.8113 9.49707C15.864 9.40332 15.9431 9.3418 16.0486 9.3125L18.4656 8.6709C18.5652 8.64746 18.6589 8.66211 18.7468 8.71484C18.8347 8.76172 18.8933 8.83789 18.9226 8.94336C18.9519 9.04883 18.9402 9.14844 18.8875 9.24219C18.8347 9.33008 18.7556 9.38867 18.6501 9.41797L16.2595 10.0596ZM15.9607 8.82031C15.8494 8.84961 15.7498 8.84082 15.6619 8.79395C15.574 8.74121 15.5154 8.65625 15.4861 8.53906C15.4568 8.44531 15.4685 8.35156 15.5212 8.25781C15.574 8.16406 15.6531 8.10254 15.7585 8.07324L18.1667 7.43164C18.2664 7.4082 18.3601 7.42285 18.448 7.47559C18.5359 7.52246 18.5974 7.59863 18.6326 7.7041C18.6619 7.80957 18.6501 7.90918 18.5974 8.00293C18.5447 8.09082 18.4656 8.14941 18.3601 8.17871L15.9607 8.82031ZM21.0847 13.3379L19.5994 7.94141L20.6892 7.69531L22.1746 13.083L21.0847 13.3379ZM5.0271 23.9902C4.65796 23.9902 4.34155 23.8584 4.07788 23.5947C3.82007 23.3369 3.69116 23.0234 3.69116 22.6543C3.69116 22.2852 3.82007 21.9688 4.07788 21.7051C4.34155 21.4473 4.65796 21.3184 5.0271 21.3184C5.39038 21.3184 5.70093 21.4473 5.95874 21.7051C6.22241 21.9688 6.35425 22.2852 6.35425 22.6543C6.35425 23.0234 6.22241 23.3369 5.95874 23.5947C5.70093 23.8584 5.39038 23.9902 5.0271 23.9902Z" fill="#999999" />
</svg>
