<svg width="33" height="22" viewBox="0 0 33 22" fill="none" xmlns="http://www.w3.org/2000/svg">
<path d="M15.0764 21.3506C13.2659 21.3506 12.3606 20.7324 12.3606 19.4961C12.3606 18.8809 12.5071 18.2393 12.8 17.5713C13.0989 16.9092 13.5295 16.2646 14.092 15.6377C14.6604 15.0049 15.3459 14.4365 16.1487 13.9326C16.9573 13.4287 17.8743 13.0273 18.8997 12.7285C19.925 12.4238 21.0413 12.2715 22.2483 12.2715C23.4612 12.2715 24.5774 12.4238 25.5969 12.7285C26.6223 13.0273 27.5364 13.4287 28.3391 13.9326C29.1477 14.4365 29.8362 15.0049 30.4045 15.6377C30.9729 16.2646 31.4036 16.9092 31.6965 17.5713C31.9954 18.2393 32.1448 18.8809 32.1448 19.4961C32.1448 20.7324 31.2395 21.3506 29.429 21.3506H15.0764ZM14.7512 19.6191H29.7454C29.9387 19.6191 30.0735 19.5898 30.1497 19.5312C30.2258 19.4785 30.2639 19.3818 30.2639 19.2412C30.2639 18.8604 30.1497 18.4385 29.9211 17.9756C29.6926 17.5127 29.3557 17.0498 28.9104 16.5869C28.4709 16.1182 27.926 15.6904 27.2756 15.3037C26.6311 14.9111 25.887 14.5977 25.0432 14.3633C24.2053 14.123 23.2737 14.0029 22.2483 14.0029C21.2288 14.0029 20.2971 14.123 19.4534 14.3633C18.6155 14.5977 17.8713 14.9111 17.2209 15.3037C16.5764 15.6904 16.0315 16.1182 15.5862 16.5869C15.1467 17.0498 14.8127 17.5127 14.5842 17.9756C14.3557 18.4385 14.2415 18.8604 14.2415 19.2412C14.2415 19.3818 14.2795 19.4785 14.3557 19.5312C14.4319 19.5898 14.5637 19.6191 14.7512 19.6191ZM22.2659 10.7598C21.5862 10.7598 20.9504 10.6221 20.3586 10.3467C19.7727 10.0713 19.2571 9.69043 18.8118 9.2041C18.3665 8.71777 18.0178 8.15527 17.7659 7.5166C17.5139 6.87207 17.385 6.18359 17.3792 5.45117C17.3792 4.73047 17.5051 4.05664 17.7571 3.42969C18.009 2.79688 18.3577 2.24316 18.803 1.76855C19.2542 1.29395 19.7756 0.921875 20.3674 0.652344C20.9592 0.382812 21.592 0.248047 22.2659 0.248047C22.9338 0.248047 23.5637 0.379883 24.1555 0.643555C24.7473 0.907227 25.2659 1.27637 25.7112 1.75098C26.1565 2.22559 26.5051 2.7793 26.7571 3.41211C27.0149 4.03906 27.1438 4.71289 27.1438 5.43359C27.1438 6.16602 27.0178 6.85449 26.7659 7.49902C26.5139 8.14355 26.1624 8.71191 25.7112 9.2041C25.2659 9.69043 24.7473 10.0713 24.1555 10.3467C23.5696 10.6221 22.9397 10.7598 22.2659 10.7598ZM22.2659 9.02832C22.8225 9.02832 23.3352 8.87012 23.804 8.55371C24.2727 8.23145 24.6448 7.80078 24.9202 7.26172C25.1956 6.7168 25.3333 6.10742 25.3333 5.43359C25.3333 4.7832 25.1956 4.19727 24.9202 3.67578C24.6448 3.14844 24.2727 2.73242 23.804 2.42773C23.3411 2.12305 22.8284 1.9707 22.2659 1.9707C21.7034 1.9707 21.1877 2.12598 20.719 2.43652C20.2502 2.74121 19.8752 3.15723 19.594 3.68457C19.3186 4.20605 19.1809 4.79199 19.1809 5.44238C19.1809 6.11621 19.3186 6.72559 19.594 7.27051C19.8752 7.80957 20.2473 8.2373 20.7102 8.55371C21.179 8.87012 21.6975 9.02832 22.2659 9.02832ZM2.81567 21.3506C2.0481 21.3506 1.47388 21.1895 1.09302 20.8672C0.712158 20.5449 0.521729 20.0586 0.521729 19.4082C0.521729 18.4883 0.741455 17.6035 1.18091 16.7539C1.62036 15.8984 2.22974 15.1338 3.00903 14.46C3.79419 13.7803 4.70532 13.2441 5.74243 12.8516C6.7854 12.4531 7.91333 12.2539 9.12622 12.2539C9.74146 12.2539 10.3508 12.3125 10.9543 12.4297C11.5579 12.541 12.1379 12.708 12.6946 12.9307C13.2571 13.1475 13.7815 13.417 14.2678 13.7393C14.0042 13.9209 13.7668 14.1143 13.5559 14.3193C13.345 14.5244 13.1545 14.7441 12.9846 14.9785C12.6331 14.7559 12.2493 14.5684 11.8333 14.416C11.4172 14.2637 10.9807 14.1494 10.5237 14.0732C10.0667 13.9912 9.60083 13.9502 9.12622 13.9502C8.20044 13.9502 7.32446 14.0967 6.49829 14.3896C5.67798 14.6768 4.94849 15.0723 4.30981 15.5762C3.677 16.0742 3.17896 16.6396 2.81567 17.2725C2.45825 17.9111 2.27954 18.5762 2.27954 19.2676C2.27954 19.4082 2.31177 19.5078 2.37622 19.5664C2.44653 19.6309 2.55786 19.6631 2.71021 19.6631H10.9719C10.9543 19.8857 10.9836 20.1055 11.0598 20.3223C11.136 20.5449 11.2415 20.7471 11.3762 20.9287C11.5168 21.1104 11.678 21.251 11.8596 21.3506H2.81567ZM9.1438 11.0146C8.35864 11.0146 7.6438 10.8066 6.99927 10.3906C6.3606 9.96875 5.85083 9.40625 5.46997 8.70312C5.08911 8 4.89575 7.21777 4.88989 6.35645C4.88989 5.72949 4.99829 5.14063 5.21509 4.58984C5.43774 4.03906 5.74243 3.55273 6.12915 3.13086C6.52173 2.70898 6.97583 2.37793 7.49146 2.1377C8.00708 1.89746 8.55786 1.77734 9.1438 1.77734C9.72974 1.77734 10.2776 1.89746 10.7874 2.1377C11.303 2.37207 11.7542 2.7002 12.1409 3.12207C12.5334 3.53809 12.8411 4.02148 13.0637 4.57227C13.2864 5.12305 13.3977 5.71191 13.3977 6.33887C13.3977 7.2002 13.2043 7.98535 12.8176 8.69434C12.4368 9.40332 11.9241 9.96875 11.2795 10.3906C10.6409 10.8066 9.92896 11.0146 9.1438 11.0146ZM9.1438 9.30078C9.60669 9.30078 10.0315 9.17188 10.4182 8.91406C10.8049 8.65039 11.1155 8.2959 11.3499 7.85059C11.5842 7.39941 11.7014 6.89551 11.7014 6.33887C11.7014 5.81152 11.5842 5.33105 11.3499 4.89746C11.1213 4.46387 10.8108 4.12109 10.4182 3.86914C10.0315 3.61133 9.60669 3.48242 9.1438 3.48242C8.68091 3.48242 8.25317 3.61133 7.8606 3.86914C7.47388 4.12695 7.16333 4.47559 6.92896 4.91504C6.70044 5.34863 6.58618 5.8291 6.58618 6.35645C6.58618 6.90723 6.70044 7.40527 6.92896 7.85059C7.16333 8.2959 7.47388 8.65039 7.8606 8.91406C8.24731 9.17188 8.67505 9.30078 9.1438 9.30078Z" fill="#999999"/>
</svg>
