<svg width="25" height="25" viewBox="0 0 25 25" fill="none" xmlns="http://www.w3.org/2000/svg">
<path d="M11.3398 24.8359C10.9004 24.8359 10.5225 24.71 10.2061 24.458C9.88965 24.2061 9.67871 23.8633 9.57324 23.4297L9.08984 21.373L8.68555 21.2324L6.90137 22.3398C6.52637 22.5801 6.13672 22.6738 5.73242 22.6211C5.32812 22.5684 4.96777 22.3838 4.65137 22.0674L3.06055 20.4766C2.73828 20.1602 2.55078 19.7998 2.49805 19.3955C2.45117 18.9912 2.54785 18.6045 2.78809 18.2354L3.9043 16.4424L3.75488 16.0557L1.70703 15.5811C1.28516 15.4756 0.945312 15.2617 0.6875 14.9395C0.435547 14.6172 0.30957 14.2363 0.30957 13.7969V11.5557C0.30957 11.1162 0.432617 10.7383 0.678711 10.4219C0.930664 10.0996 1.27344 9.88574 1.70703 9.78027L3.74609 9.28809L3.89551 8.89258L2.7793 7.1084C2.53906 6.7334 2.44238 6.34668 2.48926 5.94824C2.54199 5.54395 2.72949 5.18066 3.05176 4.8584L4.64258 3.25879C4.95312 2.94824 5.31055 2.76953 5.71484 2.72266C6.11914 2.66992 6.50879 2.75781 6.88379 2.98633L8.66797 4.09375L9.08984 3.93555L9.57324 1.8877C9.67871 1.4541 9.88965 1.11133 10.2061 0.859375C10.5225 0.607422 10.9004 0.481445 11.3398 0.481445H13.6426C14.0879 0.481445 14.4688 0.607422 14.7852 0.859375C15.1074 1.11133 15.3184 1.4541 15.418 1.8877L15.8926 3.93555L16.3057 4.09375L18.0986 2.98633C18.4795 2.75781 18.8691 2.66992 19.2676 2.72266C19.6719 2.76953 20.0322 2.94824 20.3486 3.25879L21.9307 4.8584C22.2529 5.18066 22.4375 5.54395 22.4844 5.94824C22.5371 6.34668 22.4463 6.7334 22.2119 7.1084L21.0869 8.89258L21.2363 9.28809L23.2754 9.78027C23.709 9.88574 24.0518 10.0996 24.3037 10.4219C24.5557 10.7383 24.6816 11.1162 24.6816 11.5557V13.7969C24.6816 14.2363 24.5557 14.6172 24.3037 14.9395C24.0518 15.2617 23.709 15.4756 23.2754 15.5811L21.2275 16.0557L21.0869 16.4424L22.2031 18.2354C22.4375 18.6045 22.5283 18.9912 22.4756 19.3955C22.4287 19.7998 22.2441 20.1602 21.9219 20.4766L20.3398 22.0674C20.0176 22.3838 19.6543 22.5684 19.25 22.6211C18.8516 22.6738 18.4648 22.5801 18.0898 22.3398L16.2969 21.2324L15.8926 21.373L15.418 23.4297C15.3184 23.8633 15.1074 24.2061 14.7852 24.458C14.4688 24.71 14.0879 24.8359 13.6426 24.8359H11.3398ZM11.5859 23.0342H13.3965C13.6191 23.0342 13.751 22.9287 13.792 22.7178L14.4424 19.9492C14.7998 19.8613 15.1338 19.7529 15.4443 19.624C15.7549 19.4951 16.042 19.3486 16.3057 19.1846L18.7227 20.6875C18.8984 20.8047 19.0713 20.7812 19.2412 20.6172L20.4893 19.3691C20.6416 19.2227 20.6592 19.0557 20.542 18.8682L19.0391 16.4512C19.1914 16.1934 19.332 15.9062 19.4609 15.5898C19.5898 15.2734 19.6982 14.9453 19.7861 14.6055L22.5635 13.9551C22.7744 13.9141 22.8799 13.7822 22.8799 13.5596V11.7842C22.8799 11.5674 22.7744 11.4355 22.5635 11.3887L19.7949 10.7295C19.707 10.3779 19.5928 10.0439 19.4521 9.72754C19.3174 9.40527 19.1855 9.12402 19.0566 8.88379L20.542 6.47559C20.665 6.28223 20.6533 6.10937 20.5068 5.95703L19.25 4.70898C19.0859 4.55664 18.9102 4.53613 18.7227 4.64746L16.3145 6.13281C16.0508 5.98633 15.7607 5.8457 15.4443 5.71094C15.1279 5.57617 14.7939 5.46777 14.4424 5.38574L13.792 2.59961C13.751 2.38867 13.6191 2.2832 13.3965 2.2832H11.5859C11.3691 2.2832 11.2402 2.38867 11.1992 2.59961L10.5488 5.36816C10.209 5.45605 9.87207 5.57031 9.53809 5.71094C9.2041 5.8457 8.91113 5.9834 8.65918 6.12402L6.25977 4.64746C6.07227 4.53613 5.89941 4.55664 5.74121 4.70898L4.47559 5.94824C4.32324 6.10059 4.30859 6.27344 4.43164 6.4668L5.92578 8.88379C5.79688 9.12402 5.66504 9.40527 5.53027 9.72754C5.39551 10.0439 5.28418 10.3809 5.19629 10.7383L2.42773 11.3887C2.2168 11.4355 2.11133 11.5674 2.11133 11.7842V13.5596C2.11133 13.7822 2.2168 13.9141 2.42773 13.9551L5.20508 14.6055C5.28711 14.9395 5.39551 15.2676 5.53027 15.5898C5.66504 15.9062 5.80273 16.1934 5.94336 16.4512L4.44043 18.8682C4.32324 19.0557 4.34082 19.2227 4.49316 19.3691L5.75 20.626C5.91406 20.7842 6.08398 20.8076 6.25977 20.6963L8.67676 19.1846C8.94629 19.3486 9.23926 19.4951 9.55566 19.624C9.87207 19.7529 10.2002 19.8613 10.54 19.9492L11.1992 22.7178C11.2402 22.9287 11.3691 23.0342 11.5859 23.0342ZM12.5 16.9697C11.709 16.9697 10.9854 16.7764 10.3291 16.3896C9.67871 15.9971 9.15723 15.4756 8.76465 14.8252C8.37207 14.1689 8.17578 13.4453 8.17578 12.6543C8.17578 11.8691 8.37207 11.1514 8.76465 10.501C9.15723 9.85059 9.67871 9.33203 10.3291 8.94531C10.9854 8.55273 11.709 8.35645 12.5 8.35645C13.2852 8.35645 14.0029 8.55273 14.6533 8.94531C15.3096 9.33203 15.8311 9.85059 16.2178 10.501C16.6104 11.1514 16.8066 11.8691 16.8066 12.6543C16.8066 13.4453 16.6104 14.1689 16.2178 14.8252C15.8311 15.4814 15.3096 16.0029 14.6533 16.3896C14.0029 16.7764 13.2852 16.9697 12.5 16.9697ZM12.5 15.2559C12.9688 15.2559 13.3965 15.1387 13.7832 14.9043C14.1758 14.6641 14.4893 14.3477 14.7236 13.9551C14.958 13.5625 15.0752 13.1289 15.0752 12.6543C15.0752 12.1855 14.958 11.7578 14.7236 11.3711C14.4893 10.9785 14.1758 10.665 13.7832 10.4307C13.3965 10.1904 12.9688 10.0703 12.5 10.0703C12.0254 10.0703 11.5918 10.1904 11.1992 10.4307C10.8066 10.665 10.4932 10.9785 10.2588 11.3711C10.0244 11.7578 9.90723 12.1855 9.90723 12.6543C9.90723 13.1289 10.0244 13.5654 10.2588 13.9639C10.4932 14.3564 10.8066 14.6699 11.1992 14.9043C11.5918 15.1387 12.0254 15.2559 12.5 15.2559Z" fill="#999999"/>
</svg>
